# xmcd
#
# Track frame offsets:
#	150
#	5823
#	27341
#	43401
#	56926
#	58838
#	76080
#	94245
#	110238
#	123093
#	138157
#	157914
#	181999
#	194641
#	208663
#	227493
#
# Disc length: 3247 seconds
#
# Revision: 1
# Processed by: cddbd v1.5.1PL0 Copyright (c) Steve Scherf et al.
# Submitted via: EasyCDDAExtractor 8.0.2.1
#
DISCID=e30cad10
DTITLE=Various Artist - Hip Hop Nueva Escuela Segunda Leccion
DYEAR=1900
DGENRE=
TTITLE0=Dani Ro - La prision en Libertad
TTITLE1=Rapsusklei and Hazhe - Mas de lo que creo
TTITLE2=Coco er virus and Juan Profundo - Metralleta
TTITLE3=Rally - Nadie como Tu
TTITLE4=descanso - Descanso
TTITLE5=Dr. Loncho and Alberto rodriguez - Street Fighter
TTITLE6=Gran Pueblo - Biofruto
TTITLE7=Iron Fist and Shangai - Todo sigue igual
TTITLE8=Haibilal - Sonara raro
TTITLE9=El Maño - A kilometros me hueles
TTITLE10=Mitsuruggy - Natural Toy killa
TTITLE11=Alto pakto and Inzebrashier - Dos versiones
TTITLE12=Los mas perlas and Edgar chop Suey - Los tres magnificos
TTITLE13=Tres cabrones del barrio and Alto pakto - Perros sin collar
TTITLE14=Mi comply - Metronomo
TTITLE15=Coco er virus - Vida
EXTD=
EXTT0=
EXTT1=
EXTT2=
EXTT3=
EXTT4=
EXTT5=
EXTT6=
EXTT7=
EXTT8=
EXTT9=
EXTT10=
EXTT11=
EXTT12=
EXTT13=
EXTT14=
EXTT15=
PLAYORDER=
